# xmcd
#
# Track frame offsets:
#	150
#	15580
#	31465
#	47757
#	60814
#	75082
#	92937
#	110385
#	128265
#	148912
#
# Disc length: 2167 seconds
#
# Revision: 5
# Processed by: cddbd v1.5.2PL0 Copyright (c) Steve Scherf et al.
# Submitted via: audiograbber 1.83.01
#
DISCID=6f08750a
DTITLE=Various Artist - Super Hits Of 1996
DYEAR=1900
DGENRE=Oldies
TTITLE0=Patty Loveless - You Can Feel Bad
TTITLE1=Rick Trevino - Learning As You Go
TTITLE2=James Bonamy - I Don't Think I Will
TTITLE3=Mary Chapin Carpenter - Let Me Into Your Heart
TTITLE4=Wade Hayes - On A Good Night
TTITLE5=Collin Raye - Not That Different
TTITLE6=Ty Herndon - Living In A Moment
TTITLE7=Joe Diffie - Bigger Than The Beatles
TTITLE8=Patty Loveless - Been Lonely Too Long
TTITLE9=Ricochet - Daddy's Money
EXTD=
EXTT0=
EXTT1=
EXTT2=
EXTT3=
EXTT4=
EXTT5=
EXTT6=
EXTT7=
EXTT8=
EXTT9=
PLAYORDER=
